<svg width="21" height="21" viewBox="0 0 21 21" fill="none" xmlns="http://www.w3.org/2000/svg">
<path d="M19.7312 1.28276C18.706 0.257634 17.044 0.257634 16.0188 1.28276L14.8617 2.43991L18.574 6.15222L19.7312 4.99507C20.7563 3.96995 20.7563 2.30789 19.7312 1.28276Z" fill="#0F172A"/>
<path d="M17.5133 7.21288L13.801 3.50057L5.40019 11.9014C4.78341 12.5182 4.33002 13.279 4.081 14.1149L3.28122 16.7998C3.2026 17.0637 3.27494 17.3495 3.46967 17.5442C3.6644 17.739 3.95019 17.8113 4.21412 17.7327L6.89901 16.9329C7.73498 16.6839 8.49573 16.2305 9.11252 15.6137L17.5133 7.21288Z" fill="#0F172A"/>
<path d="M3.25 4.26391C1.59315 4.26391 0.25 5.60705 0.25 7.26391V17.7639C0.25 19.4208 1.59315 20.7639 3.25 20.7639H13.75C15.4069 20.7639 16.75 19.4208 16.75 17.7639V12.5139C16.75 12.0997 16.4142 11.7639 16 11.7639C15.5858 11.7639 15.25 12.0997 15.25 12.5139V17.7639C15.25 18.5923 14.5784 19.2639 13.75 19.2639H3.25C2.42157 19.2639 1.75 18.5923 1.75 17.7639V7.26391C1.75 6.43548 2.42157 5.76391 3.25 5.76391H8.5C8.91421 5.76391 9.25 5.42812 9.25 5.01391C9.25 4.59969 8.91421 4.26391 8.5 4.26391H3.25Z" fill="#0F172A"/>
</svg>
