<svg width="18" height="17" viewBox="0 0 18 17" fill="none" xmlns="http://www.w3.org/2000/svg">
<path d="M8.29946 1.04747C8.46734 0.650845 9.03913 0.650845 9.20701 1.04747L11.0645 5.43581C11.1353 5.60301 11.2953 5.71726 11.479 5.73173L16.3004 6.11154C16.7361 6.14587 16.9128 6.68023 16.5808 6.95968L12.9074 10.0516C12.7675 10.1694 12.7064 10.3543 12.7491 10.5304L13.8714 15.1535C13.9728 15.5714 13.5102 15.9016 13.1372 15.6777L9.00941 13.2003C8.85214 13.1059 8.65433 13.1059 8.49706 13.2003L4.36931 15.6777C3.99624 15.9016 3.53365 15.5714 3.63508 15.1535L4.75736 10.5304C4.80012 10.3543 4.73899 10.1694 4.59903 10.0516L0.925669 6.95968C0.593668 6.68023 0.770361 6.14587 1.20612 6.11154L6.02747 5.73173C6.21117 5.71726 6.3712 5.60301 6.44197 5.43581L8.29946 1.04747Z" fill="#0F172A" stroke="#0F172A" stroke-width="1.5" stroke-linecap="round" stroke-linejoin="round"/>
</svg>
